<svg width="210" height="32" viewBox="0 0 210 32" fill="none" xmlns="http://www.w3.org/2000/svg">
<path d="M29.96 9.576V12.696C29.96 14.44 30.12 16.264 34.072 16.264C34.952 16.264 36.248 16.152 37.144 15.944V21H38.2V9.576H37.144V14.968C36.248 15.176 35.224 15.304 34.088 15.304C31.016 15.304 31.016 14.056 31.016 12.856V9.576H29.96ZM41.2071 9.576V21H43.0631L48.9191 10.696H49.2391V21H50.2951V9.576H48.4391L42.5991 19.88H42.2631V9.576H41.2071ZM60.8529 9.576H52.1009V10.504H55.9569V21H57.0129V10.504H60.8529V9.576ZM66.6954 9.576H64.7754L60.6954 21H61.7994L63.0954 17.304H68.3594L69.6554 21H70.7914L66.6954 9.576ZM65.4154 10.696H66.0394L68.0234 16.344H63.4314L65.4154 10.696ZM79.3841 9.576H70.6321V10.504H74.4881V21H75.5441V10.504H79.3841V9.576ZM82.2475 20.04V15.096H85.5755C87.7995 15.096 88.5835 16.072 88.5835 17.56C88.5835 19.064 87.7995 20.04 85.5755 20.04H82.2475ZM85.7675 21C88.2635 21 89.6395 19.704 89.6395 17.576C89.6395 15.416 88.2635 14.136 85.7675 14.136H82.2475V9.576H81.1915V21H85.7675ZM96.4571 9.576V21H97.5131V10.536H104.329V21H105.385V9.576H96.4571ZM113.035 9.368C109.611 9.368 107.803 12.024 107.803 15.288C107.803 18.552 109.611 21.208 113.035 21.208C116.443 21.208 118.267 18.552 118.267 15.288C118.267 12.024 116.443 9.368 113.035 9.368ZM113.035 20.248C110.091 20.248 108.859 17.784 108.859 15.288C108.859 12.792 110.091 10.328 113.035 10.328C115.979 10.328 117.211 12.792 117.211 15.288C117.211 17.784 115.979 20.248 113.035 20.248ZM119.332 19.944V21H119.604C121.956 21 122.9 19.528 122.9 13.864V10.536H127.988V21H129.044V9.576H121.876V13.864C121.876 18.952 121.124 19.944 119.604 19.944H119.332ZM140.035 9.576V14.6H133.107V9.576H132.051V21H133.107V15.592H140.035V21H141.091V9.576H140.035ZM148.738 9.368C145.314 9.368 143.506 12.024 143.506 15.288C143.506 18.552 145.314 21.208 148.738 21.208C152.146 21.208 153.97 18.552 153.97 15.288C153.97 12.024 152.146 9.368 148.738 9.368ZM148.738 20.248C145.794 20.248 144.562 17.784 144.562 15.288C144.562 12.792 145.794 10.328 148.738 10.328C151.682 10.328 152.914 12.792 152.914 15.288C152.914 17.784 151.682 20.248 148.738 20.248ZM164.283 17.912C163.851 19.32 162.747 20.248 161.003 20.248C158.091 20.248 156.843 17.848 156.843 15.288C156.843 12.744 158.107 10.328 161.019 10.328C162.763 10.328 163.675 11.096 164.171 12.44H165.291C164.827 10.52 163.243 9.368 161.019 9.368C157.643 9.368 155.787 11.944 155.787 15.288C155.787 18.632 157.643 21.208 161.003 21.208C163.419 21.208 164.939 19.848 165.419 17.912H164.283ZM175.29 9.576H166.538V10.504H170.394V21H171.45V10.504H175.29V9.576ZM178.154 20.04V15.096H181.482C183.706 15.096 184.49 16.072 184.49 17.56C184.49 19.064 183.706 20.04 181.482 20.04H178.154ZM181.674 21C184.17 21 185.546 19.704 185.546 17.576C185.546 15.416 184.17 14.136 181.674 14.136H178.154V9.576H177.098V21H181.674ZM196.598 9.368C193.526 9.368 191.75 11.672 191.542 14.6H188.966V9.576H187.91V21H188.966V15.592H191.51C191.638 18.712 193.35 21.208 196.598 21.208C199.926 21.208 201.686 18.552 201.686 15.288C201.686 12.024 199.926 9.368 196.598 9.368ZM196.598 20.248C193.718 20.248 192.566 17.784 192.566 15.288C192.566 12.792 193.718 10.328 196.598 10.328C199.478 10.328 200.63 12.792 200.63 15.288C200.63 17.784 199.478 20.248 196.598 20.248Z" fill="#242424"/>
<path fill-rule="evenodd" clip-rule="evenodd" d="M19.9084 8.05887L19.9084 9.08393L19.9084 17.2844L18.9144 17.2844L18.9144 9.75983L5.41259 23.2616L4.70549 22.5545L18.176 9.08393L10.7491 9.08393L10.7491 8.05887L18.9144 8.05887L19.9084 8.05887Z" fill="#242424"/>
<line x1="0.5" y1="31" x2="0.500001" y2="-2.18557e-08" stroke="#242424"/>
<line y1="31.5" x2="210" y2="31.5" stroke="#242424"/>
</svg>
